<?xml version="1.0" standalone="no"?>
<!DOCTYPE svg PUBLIC "-//W3C//DTD SVG 20010904//EN"
 "http://www.w3.org/TR/2001/REC-SVG-20010904/DTD/svg10.dtd">
<svg version="1.0" xmlns="http://www.w3.org/2000/svg"
 width="1024.000000pt" height="1024.000000pt" viewBox="0 0 1024.000000 1024.000000"
 preserveAspectRatio="xMidYMid meet">
<metadata>
Created by potrace 1.14, written by Peter Selinger 2001-2017
</metadata>
<g transform="translate(0.000000,1024.000000) scale(0.100000,-0.100000)"
fill="#000000" stroke="none">
<path d="M5205 8666 c-138 -27 -249 -87 -335 -184 -59 -66 -123 -186 -140
-262 -6 -30 -14 -62 -16 -72 -3 -10 -24 -21 -57 -28 -29 -7 -92 -26 -142 -42
-318 -106 -568 -259 -795 -488 -272 -272 -462 -613 -541 -971 -23 -101 -24
-121 -29 -769 -4 -438 -10 -675 -17 -695 -33 -93 -95 -188 -151 -232 -20 -16
-81 -55 -134 -86 -114 -67 -190 -131 -259 -218 -50 -62 -106 -163 -128 -230
-9 -29 -20 -40 -54 -53 -98 -38 -243 -180 -302 -297 -14 -26 -35 -83 -47 -126
-21 -75 -22 -93 -20 -512 2 -357 5 -444 18 -494 43 -165 177 -329 328 -402 92
-44 141 -54 256 -55 78 0 101 4 128 20 57 35 78 118 46 185 -25 53 -57 68
-164 75 -145 11 -226 63 -286 186 l-29 59 0 435 0 435 28 56 c35 72 87 125
151 155 l51 24 2754 0 2755 0 42 -20 c56 -27 119 -98 152 -168 l27 -57 3 -382
c3 -401 -1 -457 -40 -539 -52 -112 -156 -178 -298 -190 -99 -8 -114 -14 -140
-57 -38 -62 -17 -157 43 -201 58 -42 252 -19 387 46 91 43 222 177 269 273 69
140 71 161 71 619 0 465 -4 500 -69 631 -67 135 -171 240 -297 303 -45 22 -54
31 -79 89 -79 181 -209 319 -400 424 -132 72 -202 150 -256 284 l-24 60 -2
625 c0 344 -4 652 -8 685 -17 164 -102 426 -191 595 -271 512 -735 873 -1311
1020 l-41 10 -17 75 c-33 152 -132 294 -259 377 -117 75 -293 110 -431 84z
m199 -301 c12 -12 13 -22 5 -42 -10 -28 -3 -67 12 -58 5 3 6 -2 2 -11 -5 -13
-3 -15 7 -9 9 5 11 4 6 -4 -6 -9 -11 -9 -21 -1 -7 6 -4 -8 7 -30 11 -23 23
-60 25 -83 4 -40 -8 -138 -22 -183 -4 -14 -2 -21 7 -21 138 -8 377 -56 533
-108 204 -67 351 -148 483 -267 23 -21 47 -36 52 -33 6 4 7 -1 3 -12 -6 -15
-4 -16 9 -5 13 10 18 10 24 1 4 -7 3 -9 -3 -6 -6 4 -13 0 -17 -8 -6 -18 -1
-19 26 -4 17 9 25 6 51 -22 25 -25 27 -30 9 -20 -12 7 -27 9 -32 6 -5 -3 -12
0 -16 6 -4 7 -3 9 4 5 6 -3 13 -2 16 3 3 5 -1 11 -9 15 -8 3 -16 1 -16 -4 -5
-38 -2 -45 16 -42 15 2 17 1 6 -6 -12 -9 30 -75 122 -192 7 -9 23 -36 36 -60
13 -25 46 -79 72 -121 27 -41 63 -107 80 -145 17 -38 39 -87 49 -109 40 -85
67 -177 76 -255 3 -25 10 -61 16 -80 8 -24 14 -256 18 -725 6 -676 7 -692 28
-765 25 -82 120 -283 149 -315 10 -11 30 -36 45 -55 14 -19 47 -56 73 -82 25
-27 43 -48 38 -49 -34 -3 -121 -5 -333 -8 -139 -2 -232 -7 -215 -11 24 -6 15
-8 -40 -10 l-70 -3 50 -7 50 -7 -47 -1 c-48 -2 -68 -16 -50 -34 5 -5 81 -13
169 -17 119 -6 29 -9 -367 -11 -966 -5 -3741 -2 -3747 4 -12 11 72 120 124
160 28 23 94 64 145 91 170 91 299 244 365 431 l28 79 6 665 c5 575 8 676 23
749 69 334 268 671 540 912 262 232 574 376 966 447 44 8 45 8 40 42 -3 19 -5
71 -5 115 0 65 5 91 27 136 37 81 109 151 183 177 48 17 171 15 189 -3z m137
-102 c13 -16 12 -17 -3 -4 -10 7 -18 15 -18 17 0 8 8 3 21 -13z m37 -68 c-3
-3 -9 2 -12 12 -6 14 -5 15 5 6 7 -7 10 -15 7 -18z"/>
<path d="M5152 6726 c-253 -49 -481 -270 -537 -521 -45 -200 15 -462 140 -617
90 -111 242 -203 387 -233 116 -25 355 -15 391 15 7 7 12 359 4 366 -2 2 -32
-9 -67 -23 -171 -69 -375 -24 -471 104 -68 90 -74 107 -74 228 0 100 3 115 27
165 33 66 110 147 149 155 15 4 39 15 52 25 61 49 206 52 317 7 35 -15 65 -25
67 -24 5 6 4 297 -1 306 -13 20 -140 51 -225 56 -51 3 -115 -1 -159 -9z"/>
<path d="M3878 5963 c1 -406 3 -760 5 -786 l2 -49 100 94 c55 52 124 116 153
142 l52 49 0 203 0 204 180 0 c137 0 180 3 180 13 0 6 -7 44 -15 82 -8 39 -15
98 -15 132 l0 62 -46 7 c-25 3 -99 5 -165 2 l-119 -4 0 153 0 153 215 0 c146
0 215 3 215 11 0 17 85 131 132 176 24 22 61 53 82 67 l39 26 -499 0 -499 0 3
-737z"/>
<path d="M6654 6496 c-71 -84 -207 -246 -303 -360 l-173 -208 -25 24 c-14 13
-140 161 -281 331 l-257 307 -3 -751 c-1 -414 0 -754 3 -757 3 -3 76 64 164
149 l159 154 1 163 c1 89 5 162 10 162 5 0 30 -26 57 -57 26 -32 77 -91 112
-131 l65 -73 24 23 c14 13 75 80 135 151 61 70 112 127 114 127 1 0 3 -80 3
-177 l1 -178 165 -165 165 -165 0 793 c0 435 -2 792 -4 792 -2 0 -62 -69 -132
-154z"/>
<path d="M3772 4849 c-47 -14 -74 -61 -69 -122 4 -51 23 -79 72 -106 27 -14
90 -16 610 -16 545 0 582 1 618 19 76 37 98 106 57 174 -39 63 -29 62 -672 61
-335 0 -597 -5 -616 -10z"/>
<path d="M5473 4850 c-40 -9 -60 -25 -79 -61 -27 -54 -12 -109 44 -158 35 -30
108 -33 787 -29 587 3 623 4 650 22 17 10 38 28 47 40 23 27 23 99 1 137 -36
61 -16 59 -750 58 -367 -1 -683 -5 -700 -9z"/>
<path d="M2479 7865 c-40 -22 -62 -63 -61 -114 0 -50 11 -68 234 -371 178
-243 182 -248 228 -260 34 -9 47 -8 84 9 75 33 97 110 53 183 -46 77 -344 485
-383 525 -37 38 -46 43 -85 43 -24 -1 -56 -7 -70 -15z"/>
<path d="M8001 7853 c-16 -16 -94 -118 -172 -228 -78 -110 -161 -225 -183
-255 -46 -61 -66 -101 -66 -131 0 -33 29 -86 57 -104 32 -21 104 -21 137 0 14
9 78 89 143 178 65 89 153 209 196 267 91 123 106 162 86 217 -31 81 -139 111
-198 56z"/>
<path d="M2123 7205 c-41 -18 -73 -69 -73 -118 0 -69 36 -94 285 -189 423
-164 436 -167 500 -116 80 62 58 184 -38 214 -12 3 -153 55 -314 115 -160 60
-299 109 -310 109 -10 -1 -33 -7 -50 -15z"/>
<path d="M8420 7213 c-24 -9 -437 -162 -525 -194 -101 -37 -123 -52 -141 -95
-30 -71 15 -155 90 -169 31 -6 66 3 209 55 454 164 507 190 524 258 8 35 -17
101 -47 124 -27 20 -85 31 -110 21z"/>
<path d="M2099 6695 c-26 -14 -59 -69 -59 -99 0 -36 34 -97 61 -111 16 -9 140
-33 276 -55 136 -22 272 -44 302 -50 110 -20 172 -5 204 49 33 56 11 142 -44
172 -25 13 -624 109 -679 108 -19 0 -47 -6 -61 -14z"/>
<path d="M8330 6694 c-47 -7 -175 -27 -285 -44 -110 -17 -217 -35 -237 -41
-112 -30 -106 -214 8 -235 20 -4 95 3 177 16 361 55 514 83 539 98 16 9 35 34
44 58 20 53 7 101 -37 139 -36 29 -75 31 -209 9z"/>
<path d="M2573 5980 c-48 -29 -67 -65 -67 -124 0 -96 64 -152 162 -144 49 4
59 9 95 47 38 42 39 44 35 103 -4 56 -8 64 -46 99 -37 35 -47 39 -94 39 -35 0
-64 -7 -85 -20z"/>
<path d="M7910 5992 c-109 -49 -122 -214 -21 -267 96 -49 224 23 224 127 0 87
-61 149 -144 147 -24 0 -51 -3 -59 -7z"/>
<path d="M2572 5400 c-21 -13 -41 -38 -53 -66 -66 -148 113 -280 234 -174 75
66 65 185 -20 241 -39 26 -118 25 -161 -1z"/>
<path d="M7891 5403 c-47 -24 -71 -67 -71 -131 0 -66 20 -103 70 -131 47 -26
90 -27 141 -1 133 69 87 281 -62 280 -24 0 -59 -8 -78 -17z"/>
<path d="M4807 3969 c-52 -12 -83 -35 -101 -74 -42 -88 2 -160 108 -179 21 -4
49 -12 63 -17 21 -8 23 -12 13 -24 -17 -20 -71 -19 -115 2 l-36 17 -30 -31
c-26 -26 -29 -34 -20 -51 17 -32 90 -62 152 -62 103 1 179 59 179 138 0 74
-41 109 -153 132 -45 9 -57 15 -55 28 4 22 52 27 100 11 36 -11 39 -11 65 15
32 32 25 52 -28 78 -46 22 -96 29 -142 17z"/>
<path d="M3130 3950 c-19 -19 -20 -31 -18 -197 l3 -177 28 -16 c24 -13 30 -13
55 0 23 14 27 23 30 68 l3 52 56 0 c81 0 136 29 163 85 27 55 19 104 -22 151
-37 42 -79 54 -190 54 -75 0 -91 -3 -108 -20z m208 -127 c3 -27 -1 -31 -29
-37 -70 -14 -79 -10 -79 33 0 37 2 40 33 43 51 5 72 -5 75 -39z"/>
<path d="M3897 3952 c-26 -28 -24 -251 2 -308 38 -83 161 -119 250 -72 79 41
86 58 89 226 4 161 0 172 -58 172 -50 0 -60 -24 -60 -152 0 -126 -9 -148 -62
-148 -47 0 -56 24 -60 153 -3 104 -5 120 -22 133 -27 19 -60 18 -79 -4z"/>
<path d="M5503 3955 c-22 -16 -23 -21 -23 -186 0 -94 4 -179 10 -189 14 -26
57 -34 86 -15 21 14 24 23 24 80 l0 65 60 0 c59 0 59 0 64 -32 3 -18 7 -49 8
-68 4 -46 43 -68 86 -48 l27 13 3 180 c3 174 2 181 -19 198 -51 41 -99 11 -99
-62 0 -54 -10 -66 -57 -70 -62 -5 -73 5 -73 62 0 29 -4 58 -8 64 -13 21 -65
26 -89 8z"/>
<path d="M6320 3950 c-18 -18 -20 -33 -20 -184 0 -223 -12 -210 197 -208 119
2 123 3 139 27 15 23 15 27 0 50 -16 24 -21 25 -117 25 l-100 0 3 28 c3 27 3
27 98 32 92 5 95 6 104 32 8 22 6 32 -9 48 -16 17 -30 20 -107 20 -81 0 -88 2
-88 20 0 18 7 20 88 20 98 0 132 14 132 55 0 45 -32 55 -172 55 -115 0 -130
-2 -148 -20z"/>
<path d="M7117 3952 c-15 -16 -17 -45 -17 -195 0 -170 1 -176 22 -191 51 -36
98 -3 98 69 0 45 0 45 35 45 19 0 35 -5 35 -10 0 -19 50 -89 75 -106 34 -22
83 -11 91 22 4 17 -3 38 -26 74 l-32 50 26 31 c46 55 46 123 0 178 -33 39 -77
51 -195 51 -80 0 -99 -3 -112 -18z m217 -108 c13 -33 -3 -53 -49 -59 -55 -9
-65 -2 -65 41 l0 34 54 0 c41 0 55 -4 60 -16z"/>
<path d="M2649 3327 c-28 -18 -35 -31 -40 -67 -10 -71 4 -150 31 -172 24 -20
34 -20 301 -18 l155 1 18 -63 c31 -112 92 -214 186 -309 116 -118 250 -192
394 -218 37 -7 222 -11 481 -11 l422 0 23 -62 c28 -81 98 -193 161 -263 262
-285 737 -298 1020 -28 93 89 155 179 195 281 l28 72 425 0 c486 0 523 5 681
83 70 34 102 59 180 137 106 106 161 195 190 309 l17 66 233 5 c229 5 232 5
251 29 15 18 19 39 19 98 0 84 -15 123 -55 141 -20 9 -638 12 -2654 12 l-2628
0 -34 -23z m1931 -418 l0 -159 -357 0 c-197 0 -392 5 -433 10 -146 19 -293
118 -354 238 -14 28 -26 55 -26 60 0 6 243 10 585 10 l585 0 0 -159z m384 -1
l8 -158 327 1 c295 0 326 -1 329 -16 7 -30 -19 -149 -42 -200 -36 -77 -121
-157 -188 -177 -21 -6 -38 -16 -38 -21 0 -6 -35 -8 -96 -4 l-95 5 15 -23 c21
-33 21 -48 -1 -36 -10 5 -54 19 -97 32 -71 21 -83 28 -116 70 -20 26 -50 78
-66 116 -28 68 -29 69 -32 321 l-4 253 44 -3 43 -3 9 -157z m2246 149 c-1 -63
-129 -206 -222 -250 -99 -47 -123 -49 -545 -54 l-403 -5 0 159 0 158 585 2
c449 2 585 -1 585 -10z m-1463 -439 c-3 -8 -6 -5 -6 6 -1 11 2 17 5 13 3 -3 4
-12 1 -19z m-20 -95 c-3 -10 -5 -4 -5 12 0 17 2 24 5 18 2 -7 2 -21 0 -30z
m-21 -55 c-9 -12 -16 -19 -16 -15 0 11 24 47 28 42 2 -2 -3 -14 -12 -27z m-36
-53 c-7 -9 -15 -13 -17 -11 -7 7 7 26 19 26 6 0 6 -6 -2 -15z m-43 -60 c-19
-19 -24 -19 -24 0 0 8 4 12 8 9 4 -2 11 1 14 7 4 5 9 8 12 5 3 -3 -2 -12 -10
-21z m-72 -55 c-7 -11 -99 -60 -112 -60 -4 0 19 16 52 34 71 40 68 38 60 26z"/>
</g>
</svg>
